<svg xmlns="http://www.w3.org/2000/svg" xmlns:xlink="http://www.w3.org/1999/xlink" width="245.332" height="47.274" viewBox="0 0 245.332 47.274"><defs><style>.a{fill:url(#a);}.b{fill:url(#b);}.c{fill:url(#c);}.d{fill:url(#d);}.e{fill:url(#e);}.f{fill:url(#f);}.g{fill:url(#g);}.h{fill:url(#j);}.i{fill:url(#k);}.j{fill:url(#l);}.k{fill:url(#m);}.l{fill:url(#n);}.m{fill:url(#o);}.n{fill:url(#p);}.o{fill:url(#q);}.p{fill:url(#r);}.q{fill:url(#s);}.r{fill:url(#t);}.s{fill:url(#u);}.t{fill:url(#v);}.u{fill:url(#x);}.v{fill:#f2f7f4;}</style><linearGradient id="a" x1="0.5" y1="0.489" x2="0.5" y2="1.018" gradientUnits="objectBoundingBox"><stop offset="0" stop-color="#ffbf69"/><stop offset="1" stop-color="#ff9f1c"/></linearGradient><linearGradient id="b" x1="0.581" y1="0.88" x2="0.387" y2="-0.099" gradientUnits="objectBoundingBox"><stop offset="0" stop-color="#e63950" stop-opacity="0"/><stop offset="0.047" stop-color="#ff9f1c" stop-opacity="0.047"/><stop offset="0.467" stop-color="#ff9f1c" stop-opacity="0.467"/><stop offset="0.799" stop-color="#ff9f1c" stop-opacity="0.8"/><stop offset="1" stop-color="#ff9f1c"/></linearGradient><linearGradient id="c" x1="0.381" y1="0.408" x2="0.857" y2="0.775" gradientUnits="objectBoundingBox"><stop offset="0" stop-color="#fce9cb"/><stop offset="1" stop-color="#ffbd95"/></linearGradient><linearGradient id="d" x1="0.381" y1="0.408" x2="0.857" y2="0.775" xlink:href="#c"/><linearGradient id="e" x1="0.259" y1="0.208" x2="0.691" y2="0.732" xlink:href="#c"/><linearGradient id="f" x1="0.313" y1="0.313" x2="0.961" y2="0.96" gradientUnits="objectBoundingBox"><stop offset="0" stop-color="#8a7889"/><stop offset="1" stop-color="#6e566e"/></linearGradient><linearGradient id="g" x1="0.49" y1="0.674" x2="1.216" y2="-0.675" gradientUnits="objectBoundingBox"><stop offset="0" stop-color="#6e566e" stop-opacity="0"/><stop offset="0.047" stop-color="#6e566e" stop-opacity="0.047"/><stop offset="1" stop-color="#6e566e"/></linearGradient><linearGradient id="j" x1="0.382" y1="0.492" x2="0.711" y2="0.869" xlink:href="#f"/><linearGradient id="k" x1="0.372" y1="0.316" x2="0.611" y2="0.754" gradientUnits="objectBoundingBox"><stop offset="0" stop-color="#6e566e" stop-opacity="0"/><stop offset="0.294" stop-color="#674d66" stop-opacity="0.294"/><stop offset="1" stop-color="#593b56"/></linearGradient><linearGradient id="l" x1="0.635" y1="0.502" x2="-0.247" y2="0.416" gradientUnits="objectBoundingBox"><stop offset="0" stop-color="#faa68e" stop-opacity="0"/><stop offset="1" stop-color="#c9766e"/></linearGradient><linearGradient id="m" x1="0.589" y1="0.328" x2="0.356" y2="0.778" gradientUnits="objectBoundingBox"><stop offset="0" stop-color="#edf5ff"/><stop offset="1" stop-color="#d5e8fe"/></linearGradient><linearGradient id="n" x1="0.447" y1="0.586" x2="0.315" y2="0.799" xlink:href="#m"/><linearGradient id="o" x1="-0.963" y1="0.328" x2="-1.196" y2="0.778" xlink:href="#m"/><linearGradient id="p" x1="-0.694" y1="0.586" x2="-0.825" y2="0.799" xlink:href="#m"/><linearGradient id="q" x1="0.5" y1="0.172" x2="0.5" y2="2.092" xlink:href="#l"/><linearGradient id="r" x1="0.404" y1="0.278" x2="0.564" y2="0.648" gradientUnits="objectBoundingBox"><stop offset="0" stop-color="#9ae1d3"/><stop offset="1" stop-color="#80d1c1"/></linearGradient><linearGradient id="s" x1="0.5" y1="0.197" x2="0.5" y2="0.045" gradientUnits="objectBoundingBox"><stop offset="0" stop-color="#0b799d" stop-opacity="0"/><stop offset="0.174" stop-color="#117d9e" stop-opacity="0.173"/><stop offset="0.414" stop-color="#2389a0" stop-opacity="0.416"/><stop offset="0.693" stop-color="#409ca3" stop-opacity="0.694"/><stop offset="0.999" stop-color="#69b7a8"/><stop offset="1" stop-color="#69b7a8"/></linearGradient><linearGradient id="t" x1="0.5" y1="0.047" x2="0.5" y2="0.637" xlink:href="#m"/><linearGradient id="u" x1="0.5" y1="0.437" x2="0.5" y2="1.154" xlink:href="#s"/><linearGradient id="v" x1="0.5" y1="0.247" x2="0.5" y2="-0.304" xlink:href="#s"/><linearGradient id="x" x1="0.5" y1="0.247" x2="0.5" y2="-0.304" xlink:href="#s"/></defs><g transform="translate(-130 -50)"><g transform="translate(130 50)"><path class="a" d="M60.819,368.681a2.172,2.172,0,0,1-1.44,3.605c-5.1.437-11.855.7-19.264.7-8.2,0-15.6-.325-20.841-.847a2.166,2.166,0,0,1-1.42-3.59l.027-.03a28.786,28.786,0,0,1,42.619-.2q.161.176.32.354Z" transform="translate(-17.304 -325.715)"/><path class="b" d="M173.424,368.682q-.159-.178-.32-.354a28.821,28.821,0,0,0-31.691-7.373c.143.62.412,1.24.62,1.859a2.478,2.478,0,0,0,.834,1.268l8.906,8.906.946,0c7.409,0,14.163-.265,19.264-.7A2.172,2.172,0,0,0,173.424,368.682Z" transform="translate(-129.909 -325.716)"/><g transform="translate(5.794 0)"><g transform="translate(0.49 18.696)"><path class="c" d="M87.927,209.04a2.83,2.83,0,0,1-2.83-2.83v-1.683a2.83,2.83,0,0,1,5.661,0v1.683A2.83,2.83,0,0,1,87.927,209.04Z" transform="translate(-85.097 -201.696)"/><path class="d" d="M366.665,209.04a2.83,2.83,0,0,1-2.83-2.83v-1.683a2.83,2.83,0,0,1,5.661,0v1.683A2.83,2.83,0,0,1,366.665,209.04Z" transform="translate(-337.998 -201.696)"/></g><path class="e" d="M125.532,91.783a13.146,13.146,0,0,0,13.145-12.658q.164-4.545,0-9.092a13.154,13.154,0,0,0-26.289,0q-.164,4.545,0,9.092A13.146,13.146,0,0,0,125.532,91.783Z" transform="translate(-109.293 -52.057)"/><g transform="translate(8.475 18.576)"><path class="f" d="M175.031,202.3a1.9,1.9,0,1,1-1.9-1.9A1.9,1.9,0,0,1,175.031,202.3Z" transform="translate(-171.239 -200.4)"/><path class="g" d="M175.941,202.557A1.9,1.9,0,0,1,173.4,205.1a1.9,1.9,0,1,0,2.544-2.544Z" transform="translate(-173.197 -202.357)"/><g transform="translate(11.736)"><path class="f" d="M301.644,202.3a1.9,1.9,0,1,1-1.9-1.9A1.9,1.9,0,0,1,301.644,202.3Z" transform="translate(-297.852 -200.4)"/><path class="g" d="M302.553,202.557a1.9,1.9,0,0,1-2.544,2.544,1.9,1.9,0,1,0,2.544-2.544Z" transform="translate(-299.809 -202.357)"/></g></g><g transform="translate(0.933 0)"><path class="h" d="M92.074,22.376l.243-3.633a5.831,5.831,0,0,1,2.921-4.658,5.455,5.455,0,0,1,2.688-.718h7.107a9.527,9.527,0,0,0,6.79-2.8l1.712,2.737a4.62,4.62,0,0,0,1.667,1.582,4.776,4.776,0,0,1,2.426,3.858l.16,2.59a.932.932,0,0,0,.9.879.783.783,0,0,0,.776-.669l1.161-6.918a23.946,23.946,0,0,0,.253-5.935,5.19,5.19,0,0,0-6.011-4.565A16.037,16.037,0,0,0,101.192.271l-4.249.794a8.419,8.419,0,0,0-6.925,7.861l-.126,4.11a35.871,35.871,0,0,0,.275,5.64l.491,3.852a.657.657,0,0,0,.653.59A.791.791,0,0,0,92.074,22.376Z" transform="translate(-89.876 0)"/><path class="i" d="M114.869,4.126A16.038,16.038,0,0,0,101.192.271l-4.249.794a8.419,8.419,0,0,0-6.925,7.861l-.126,4.11a35.867,35.867,0,0,0,.275,5.64l.491,3.852a.657.657,0,0,0,.653.59.791.791,0,0,0,.762-.743l.243-3.633a5.831,5.831,0,0,1,2.921-4.658,5.455,5.455,0,0,1,2.688-.718h7.107a9.527,9.527,0,0,0,6.79-2.8s-1.09-4.514,3.046-6.441Z" transform="translate(-89.876 0)"/></g><path class="j" d="M359.127,252.408q.073-2.023.08-4.047a6.736,6.736,0,0,1-3.93,1.786,30.819,30.819,0,0,1,.866,10.125A13.064,13.064,0,0,0,359.127,252.408Z" transform="translate(-329.743 -225.34)"/><g transform="translate(0 19.017)"><path class="k" d="M114.315,339.8h-.006c-1.048-.008-2.539-.566-3.69-3.184a.788.788,0,1,1,1.442-.634c.448,1.019,1.2,2.235,2.26,2.243a.788.788,0,0,1-.006,1.575Z" transform="translate(-107.703 -323.428)"/><path class="l" d="M87.107,211.44h0a7.376,7.376,0,0,1-5.656-2.629,9,9,0,0,1-1.594-2.6.788.788,0,0,1,1.482-.535,7.55,7.55,0,0,0,1.333,2.136,5.761,5.761,0,0,0,4.441,2.051.788.788,0,0,1,0,1.576Z" transform="translate(-79.807 -205.159)"/><g transform="translate(24.391)"><path class="m" d="M351.143,339.8h.006c1.048-.008,2.539-.566,3.69-3.184a.788.788,0,1,0-1.442-.634c-.448,1.019-1.2,2.235-2.26,2.243a.788.788,0,0,0,.006,1.575Z" transform="translate(-349.669 -323.428)"/><path class="n" d="M343.731,211.44h0a7.376,7.376,0,0,0,5.656-2.629,9,9,0,0,0,1.594-2.6.788.788,0,0,0-1.482-.535,7.548,7.548,0,0,1-1.333,2.136,5.761,5.761,0,0,1-4.441,2.051.788.788,0,0,0,0,1.576Z" transform="translate(-342.943 -205.159)"/></g></g><path class="o" d="M226.471,231.158h-1.622a2.186,2.186,0,0,1-2.174-2.42l.848-7.883H227.8l.848,7.883A2.186,2.186,0,0,1,226.471,231.158Z" transform="translate(-209.421 -200.383)"/><g transform="translate(5.239 22.539)"><path class="p" d="M157.329,246.148a2.761,2.761,0,0,0-2.065-1.783,37.659,37.659,0,0,0-15.873,0,2.761,2.761,0,0,0-2.065,1.783,18.215,18.215,0,0,0,0,11.9,2.761,2.761,0,0,0,2.065,1.783,37.662,37.662,0,0,0,15.873,0,2.761,2.761,0,0,0,2.065-1.783A18.215,18.215,0,0,0,157.329,246.148Z" transform="translate(-136.328 -243.485)"/><path class="q" d="M157.329,246.148a2.761,2.761,0,0,0-2.065-1.783,37.659,37.659,0,0,0-15.873,0,2.761,2.761,0,0,0-2.065,1.783,18.215,18.215,0,0,0,0,11.9,2.761,2.761,0,0,0,2.065,1.783,37.662,37.662,0,0,0,15.873,0,2.761,2.761,0,0,0,2.065-1.783A18.215,18.215,0,0,0,157.329,246.148Z" transform="translate(-136.328 -243.485)"/><path class="r" d="M145.244,245.925a45.281,45.281,0,0,1,19.085,0,3.573,3.573,0,0,1,.468.134.17.17,0,0,0,.219-.213v0a2.823,2.823,0,0,0-2.112-1.824,38.512,38.512,0,0,0-16.232,0,2.823,2.823,0,0,0-2.112,1.824v0a.17.17,0,0,0,.219.213A3.567,3.567,0,0,1,145.244,245.925Z" transform="translate(-143.787 -243.154)"/><path class="s" d="M141.958,382.432q.2.825.477,1.649a2.761,2.761,0,0,0,2.065,1.783,37.66,37.66,0,0,0,15.873,0,2.761,2.761,0,0,0,2.065-1.783q.277-.823.477-1.649H141.958Z" transform="translate(-141.436 -369.522)"/><path class="t" d="M155.266,300.1a2.761,2.761,0,0,0,2.065-1.783,18.167,18.167,0,0,0,.68-9.31,52.4,52.4,0,0,0-21.363,0,18.168,18.168,0,0,0,.68,9.31,2.761,2.761,0,0,0,2.065,1.783A37.66,37.66,0,0,0,155.266,300.1Z" transform="translate(-136.329 -283.758)"/><path class="t" d="M155.31,336.184a2.761,2.761,0,0,0,2.065-1.783,18.614,18.614,0,0,0,.994-5.558,52.422,52.422,0,0,0-21.991,0,18.617,18.617,0,0,0,.994,5.558,2.761,2.761,0,0,0,2.065,1.783A37.661,37.661,0,0,0,155.31,336.184Z" transform="translate(-136.373 -319.841)"/><path class="u" d="M160.28,375.12a2.761,2.761,0,0,0,2.065-1.783q.284-.842.486-1.686a52.386,52.386,0,0,0-20.975,0q.2.844.486,1.686a2.761,2.761,0,0,0,2.065,1.783A37.661,37.661,0,0,0,160.28,375.12Z" transform="translate(-141.344 -358.778)"/></g></g></g><g transform="translate(196.03 55.549)"><path class="v" d="M2382.5,1057.92a9.541,9.541,0,0,1-7.631-7.235,17.339,17.339,0,0,1-.016-7.083,9.8,9.8,0,0,1,5.073-6.458,9.965,9.965,0,0,1,5.392-1.142,10.358,10.358,0,0,1,3.321.335,9.579,9.579,0,0,1,4.54,2.6c2.026,2.026,2.879,4.372,2.879,7.936v1.828H2382l.092.823a3.371,3.371,0,0,0,3.107,3.229c1.4.183,3.336-.685,3.625-1.63.091-.274.274-.289,3.671-.289h3.565l-.092.427a8.448,8.448,0,0,1-7.357,6.641A21.064,21.064,0,0,1,2382.5,1057.92Zm6.169-13.968a3.274,3.274,0,0,0-6.413.107l-.092.381h6.611Z" transform="translate(-2340.305 -1027.856)"/><path class="v" d="M130,653.862V640h9.383l1.493,3.93c3.58,9.368,4.722,12.216,4.813,12.11.046-.061.35-.777.655-1.569,2.224-5.834,5.133-13.42,5.3-13.892l.2-.579h9.536v27.723H154.22V659.7c0-4.951-.061-7.967-.137-7.875-.076.076-1.523,3.61-3.214,7.875l-3.062,7.723h-4.372l-2.666-6.733c-1.478-3.717-2.879-7.251-3.107-7.845a3.9,3.9,0,0,0-.533-1.112c-.076,0-.122,3.595-.122,8v8H130Z" transform="translate(-130 -637.888)"/><path class="v" d="M3950,1080.587V1070h7.921v21.173H3950Z" transform="translate(-3891.812 -1061.338)"/><path class="v" d="M3956.266,508.531a4.007,4.007,0,0,1-2.087-1.782,3.955,3.955,0,0,1,.076-3.488c1.676-2.864,6.261-2.453,7.175.655a3.046,3.046,0,0,1-.015,2.346A4.035,4.035,0,0,1,3956.266,508.531Z" transform="translate(-3895.564 -501.331)"/><g transform="translate(68.105 0.01)"><path class="v" d="M6390.579,1098.835l-.579-.061v-5.438l1.127-.061c.945-.046,1.2-.106,1.523-.411l.4-.366V1070h7.937l-.046,12-.047,11.988L6400.4,1095a7.091,7.091,0,0,1-4.8,3.564A24.26,24.26,0,0,1,6390.579,1098.835Z" transform="translate(-6362.75 -1061.348)"/><path class="v" d="M7305.307,1091.463a7.353,7.353,0,0,1-5.865-5c-.335-.975-.35-1.2-.4-8.728L7299,1070h7.937v6.291c0,3.839.061,6.489.151,6.839a2.945,2.945,0,0,0,5.636-.168c.091-.32.152-3.062.152-6.748V1070h7.921v21.173h-7.769v-4.189l-.518,1.066a5.646,5.646,0,0,1-2.483,2.787A7.452,7.452,0,0,1,7305.307,1091.463Z" transform="translate(-7257.903 -1061.348)"/><path class="v" d="M8890.968,667.86a7.665,7.665,0,0,1-3.749-2.163c-1.569-1.66-2.36-3.747-2.65-6.992-.5-5.469,1.28-10.023,4.555-11.668a7.814,7.814,0,0,1,4.234-.762,4.87,4.87,0,0,1,2.59.579,6.405,6.405,0,0,1,2.864,2.772l.38.807V640h7.923v27.723h-7.923v-3.732l-.3.64a6.546,6.546,0,0,1-2.574,2.544A8.717,8.717,0,0,1,8890.968,667.86Zm6.168-6.215a3.608,3.608,0,0,0,1.691-1.8,8.113,8.113,0,0,0,.364-3.808c-.334-2.452-1.416-3.7-3.229-3.7a2.546,2.546,0,0,0-2.3,1.066c-.776.914-1.066,2.148-.991,4.128.093,2.3.686,3.488,2.026,4.113A2.846,2.846,0,0,0,8897.136,661.646Z" transform="translate(-8819.236 -637.898)"/><path class="v" d="M10518.154,1058.813a7.819,7.819,0,0,1-3.459-1.843,5.987,5.987,0,0,1-.259-8.683c1.782-1.721,3.808-2.254,10.162-2.65l1.659-.107-.093-.792c-.122-1.173-.456-1.721-1.279-2.087-1.446-.64-3.441-.03-3.868,1.173l-.2.533h-7.053l.122-.914c.41-2.925,2.7-5.148,6.307-6.108a12.165,12.165,0,0,1,3.731-.335,11.526,11.526,0,0,1,5.94,1.142,8.32,8.32,0,0,1,3.52,3.549l.366.914.044,8.043.046,8.028h-7.631v-2.94l-.854.944A7.725,7.725,0,0,1,10518.154,1058.813Zm6.092-5.392a2.835,2.835,0,0,0,1.966-2.925v-.655h-.563a16.78,16.78,0,0,0-4.13.518,1.676,1.676,0,0,0,.016,3.062A4.337,4.337,0,0,0,10524.246,1053.421Z" transform="translate(-10422.646 -1028.851)"/><path class="v" d="M4601.367,666.627c.578-1.782,5.087-15.568,6.96-21.326l1.721-5.3h10.267l1.919,5.895c1.066,3.26,3.047,9.338,4.417,13.527s2.529,7.769,2.59,7.967l.091.335h-8.682l-.138-.487c-.076-.274-.4-1.508-.716-2.742l-.579-2.254h-8.439l-.411,1.569c-.228.853-.563,2.087-.731,2.742l-.3,1.173H4601Zm15.994-11.5c-.2-.746-.777-2.955-1.3-4.92s-.99-3.641-1.035-3.717c-.092-.152-.107-.091-1.629,5.7-.564,2.133-1.067,3.976-1.1,4.082-.062.137.533.183,2.666.183h2.757Z" transform="translate(-4601 -637.898)"/><path class="v" d="M6603.123,509.286a4.668,4.668,0,0,1-2.27-2.041,4.328,4.328,0,0,1-.046-2.94,4.055,4.055,0,0,1,6.581-1.036,3.434,3.434,0,0,1,.944,2.574,3.6,3.6,0,0,1-2.056,3.184A5.5,5.5,0,0,1,6603.123,509.286Z" transform="translate(-6570.114 -502.02)"/></g></g></g></svg>