<svg xmlns="http://www.w3.org/2000/svg" xmlns:xlink="http://www.w3.org/1999/xlink" width="301" height="58" viewBox="0 0 301 58"><defs><style>.a{fill:url(#a);}.b{fill:url(#b);}.c{fill:url(#c);}.d{fill:url(#d);}.e{fill:url(#e);}.f{fill:url(#f);}.g{fill:url(#g);}.h{fill:url(#j);}.i{fill:url(#k);}.j{fill:url(#l);}.k{fill:url(#m);}.l{fill:url(#n);}.m{fill:url(#o);}.n{fill:url(#p);}.o{fill:url(#q);}.p{fill:url(#r);}.q{fill:url(#s);}.r{fill:url(#t);}.s{fill:url(#u);}.t{fill:url(#v);}.u{fill:url(#x);}.v{fill:#2ec4b6;}.w{fill:#ffbf69;}</style><linearGradient id="a" x1="0.5" y1="0.489" x2="0.5" y2="1.018" gradientUnits="objectBoundingBox"><stop offset="0" stop-color="#ffbf69"/><stop offset="1" stop-color="#ff9f1c"/></linearGradient><linearGradient id="b" x1="0.581" y1="0.88" x2="0.387" y2="-0.099" gradientUnits="objectBoundingBox"><stop offset="0" stop-color="#e63950" stop-opacity="0"/><stop offset="0.047" stop-color="#ff9f1c" stop-opacity="0.047"/><stop offset="0.467" stop-color="#ff9f1c" stop-opacity="0.467"/><stop offset="0.799" stop-color="#ff9f1c" stop-opacity="0.8"/><stop offset="1" stop-color="#ff9f1c"/></linearGradient><linearGradient id="c" x1="0.381" y1="0.408" x2="0.857" y2="0.775" gradientUnits="objectBoundingBox"><stop offset="0" stop-color="#fce9cb"/><stop offset="1" stop-color="#ffbd95"/></linearGradient><linearGradient id="d" x1="0.381" y1="0.408" x2="0.857" y2="0.775" xlink:href="#c"/><linearGradient id="e" x1="0.259" y1="0.208" x2="0.691" y2="0.732" xlink:href="#c"/><linearGradient id="f" x1="0.313" y1="0.313" x2="0.961" y2="0.96" gradientUnits="objectBoundingBox"><stop offset="0" stop-color="#8a7889"/><stop offset="1" stop-color="#6e566e"/></linearGradient><linearGradient id="g" x1="0.49" y1="0.674" x2="1.216" y2="-0.675" gradientUnits="objectBoundingBox"><stop offset="0" stop-color="#6e566e" stop-opacity="0"/><stop offset="0.047" stop-color="#6e566e" stop-opacity="0.047"/><stop offset="1" stop-color="#6e566e"/></linearGradient><linearGradient id="j" x1="0.382" y1="0.492" x2="0.711" y2="0.869" xlink:href="#f"/><linearGradient id="k" x1="0.372" y1="0.316" x2="0.611" y2="0.754" gradientUnits="objectBoundingBox"><stop offset="0" stop-color="#6e566e" stop-opacity="0"/><stop offset="0.294" stop-color="#674d66" stop-opacity="0.294"/><stop offset="1" stop-color="#593b56"/></linearGradient><linearGradient id="l" x1="0.635" y1="0.502" x2="-0.247" y2="0.416" gradientUnits="objectBoundingBox"><stop offset="0" stop-color="#faa68e" stop-opacity="0"/><stop offset="1" stop-color="#c9766e"/></linearGradient><linearGradient id="m" x1="0.589" y1="0.328" x2="0.356" y2="0.778" gradientUnits="objectBoundingBox"><stop offset="0" stop-color="#edf5ff"/><stop offset="1" stop-color="#d5e8fe"/></linearGradient><linearGradient id="n" x1="0.447" y1="0.586" x2="0.315" y2="0.799" xlink:href="#m"/><linearGradient id="o" x1="-0.963" y1="0.328" x2="-1.196" y2="0.778" xlink:href="#m"/><linearGradient id="p" x1="-0.694" y1="0.586" x2="-0.825" y2="0.799" xlink:href="#m"/><linearGradient id="q" x1="0.5" y1="0.172" x2="0.5" y2="2.092" xlink:href="#l"/><linearGradient id="r" x1="0.404" y1="0.278" x2="0.564" y2="0.648" gradientUnits="objectBoundingBox"><stop offset="0" stop-color="#9ae1d3"/><stop offset="1" stop-color="#80d1c1"/></linearGradient><linearGradient id="s" x1="0.5" y1="0.197" x2="0.5" y2="0.045" gradientUnits="objectBoundingBox"><stop offset="0" stop-color="#0b799d" stop-opacity="0"/><stop offset="0.174" stop-color="#117d9e" stop-opacity="0.173"/><stop offset="0.414" stop-color="#2389a0" stop-opacity="0.416"/><stop offset="0.693" stop-color="#409ca3" stop-opacity="0.694"/><stop offset="0.999" stop-color="#69b7a8"/><stop offset="1" stop-color="#69b7a8"/></linearGradient><linearGradient id="t" x1="0.5" y1="0.047" x2="0.5" y2="0.637" xlink:href="#m"/><linearGradient id="u" x1="0.5" y1="0.437" x2="0.5" y2="1.154" xlink:href="#s"/><linearGradient id="v" x1="0.5" y1="0.247" x2="0.5" y2="-0.304" xlink:href="#s"/><linearGradient id="x" x1="0.5" y1="0.247" x2="0.5" y2="-0.304" xlink:href="#s"/></defs><g transform="translate(-130 -50)"><g transform="translate(112.696 50)"><path class="a" d="M70.692,370.88a2.664,2.664,0,0,1-1.767,4.424c-6.258.536-14.545.861-23.635.861-10.063,0-19.139-.4-25.57-1.039a2.658,2.658,0,0,1-1.742-4.4l.033-.036a35.318,35.318,0,0,1,52.289-.239q.2.216.392.435Z" transform="translate(0 -318.165)"/><path class="b" d="M180.687,370.881q-.195-.219-.392-.435a35.36,35.36,0,0,0-38.882-9.046c.176.761.505,1.521.761,2.28a3.04,3.04,0,0,0,1.024,1.555l10.927,10.927,1.16,0c9.091,0,17.377-.325,23.635-.861A2.665,2.665,0,0,0,180.687,370.881Z" transform="translate(-109.995 -318.166)"/><g transform="translate(24.412 0)"><g transform="translate(0.602 22.938)"><path class="c" d="M88.569,210.706a3.472,3.472,0,0,1-3.472-3.472v-2.065a3.472,3.472,0,0,1,6.945,0v2.065A3.472,3.472,0,0,1,88.569,210.706Z" transform="translate(-85.097 -201.696)"/><path class="d" d="M367.307,210.706a3.473,3.473,0,0,1-3.473-3.472v-2.065a3.473,3.473,0,0,1,6.945,0v2.065A3.473,3.473,0,0,1,367.307,210.706Z" transform="translate(-332.135 -201.696)"/></g><path class="e" d="M128.534,99.591a16.129,16.129,0,0,0,16.127-15.53q.2-5.576,0-11.155a16.139,16.139,0,0,0-32.255,0q-.2,5.576,0,11.155A16.129,16.129,0,0,0,128.534,99.591Z" transform="translate(-108.61 -50.85)"/><g transform="translate(10.398 22.791)"><path class="f" d="M175.891,202.726a2.326,2.326,0,1,1-2.326-2.326A2.326,2.326,0,0,1,175.891,202.726Z" transform="translate(-171.239 -200.4)"/><path class="g" d="M176.518,202.557a2.327,2.327,0,0,1-3.121,3.122,2.326,2.326,0,1,0,3.121-3.122Z" transform="translate(-173.152 -202.312)"/><g transform="translate(14.399)"><path class="f" d="M302.5,202.726a2.326,2.326,0,1,1-2.326-2.326A2.326,2.326,0,0,1,302.5,202.726Z" transform="translate(-297.852 -200.4)"/><path class="g" d="M303.13,202.557a2.327,2.327,0,0,1-3.121,3.122,2.326,2.326,0,1,0,3.121-3.122Z" transform="translate(-299.764 -202.312)"/></g></g><g transform="translate(1.145 0)"><path class="h" d="M92.573,27.453l.3-4.457a7.154,7.154,0,0,1,3.583-5.715,6.693,6.693,0,0,1,3.3-.881h8.719a11.688,11.688,0,0,0,8.331-3.435l2.1,3.358a5.668,5.668,0,0,0,2.046,1.941A5.859,5.859,0,0,1,123.925,23l.2,3.178a1.144,1.144,0,0,0,1.106,1.079.961.961,0,0,0,.952-.821l1.424-8.488a29.38,29.38,0,0,0,.311-7.282,6.368,6.368,0,0,0-7.375-5.6A19.676,19.676,0,0,0,103.76.333l-5.213.974a10.329,10.329,0,0,0-8.5,9.645L89.9,15.994a44.008,44.008,0,0,0,.338,6.92l.6,4.726a.806.806,0,0,0,.8.724A.97.97,0,0,0,92.573,27.453Z" transform="translate(-89.876 0)"/><path class="i" d="M120.541,5.062A19.677,19.677,0,0,0,103.76.333l-5.213.974a10.329,10.329,0,0,0-8.5,9.645L89.9,15.994a44,44,0,0,0,.338,6.92l.6,4.726a.806.806,0,0,0,.8.724.97.97,0,0,0,.935-.912l.3-4.457a7.154,7.154,0,0,1,3.583-5.715,6.693,6.693,0,0,1,3.3-.881h8.719a11.688,11.688,0,0,0,8.331-3.435s-1.337-5.538,3.738-7.9Z" transform="translate(-89.876 0)"/></g><path class="j" d="M360,253.327q.09-2.482.1-4.966a8.265,8.265,0,0,1-4.821,2.191,37.811,37.811,0,0,1,1.063,12.423A16.027,16.027,0,0,0,360,253.327Z" transform="translate(-323.949 -220.116)"/><g transform="translate(0 23.332)"><path class="k" d="M115.169,340.773h-.007c-1.286-.009-3.115-.695-4.528-3.907a.966.966,0,1,1,1.769-.778c.55,1.25,1.477,2.742,2.772,2.752a.966.966,0,0,1-.007,1.933Z" transform="translate(-107.056 -320.686)"/><path class="l" d="M88.764,212.865h0a9.049,9.049,0,0,1-6.94-3.226,11.046,11.046,0,0,1-1.955-3.186.966.966,0,0,1,1.818-.657,9.263,9.263,0,0,0,1.636,2.62,7.068,7.068,0,0,0,5.449,2.516.967.967,0,0,1,0,1.933Z" transform="translate(-79.807 -205.159)"/><g transform="translate(29.925)"><path class="m" d="M351.322,340.773h.007c1.286-.009,3.115-.695,4.528-3.907a.966.966,0,1,0-1.769-.778c-.55,1.25-1.477,2.742-2.772,2.752a.966.966,0,0,0,.007,1.933Z" transform="translate(-349.513 -320.686)"/><path class="n" d="M343.909,212.865h0a9.049,9.049,0,0,0,6.94-3.226,11.047,11.047,0,0,0,1.955-3.186.966.966,0,0,0-1.818-.657,9.261,9.261,0,0,1-1.636,2.62,7.068,7.068,0,0,1-5.449,2.516.967.967,0,0,0,0,1.933Z" transform="translate(-342.943 -205.159)"/></g></g><path class="o" d="M227.336,233.5h-1.99a2.682,2.682,0,0,1-2.667-2.969l1.04-9.672h5.243l1.04,9.672A2.682,2.682,0,0,1,227.336,233.5Z" transform="translate(-206.417 -195.738)"/><g transform="translate(6.428 27.653)"><path class="p" d="M162.095,246.744a3.387,3.387,0,0,0-2.534-2.188,46.2,46.2,0,0,0-19.475,0,3.387,3.387,0,0,0-2.534,2.188,22.348,22.348,0,0,0,0,14.6,3.387,3.387,0,0,0,2.534,2.188,46.207,46.207,0,0,0,19.475,0,3.387,3.387,0,0,0,2.534-2.188A22.348,22.348,0,0,0,162.095,246.744Z" transform="translate(-136.328 -243.477)"/><path class="q" d="M162.095,246.744a3.387,3.387,0,0,0-2.534-2.188,46.2,46.2,0,0,0-19.475,0,3.387,3.387,0,0,0-2.534,2.188,22.348,22.348,0,0,0,0,14.6,3.387,3.387,0,0,0,2.534,2.188,46.207,46.207,0,0,0,19.475,0,3.387,3.387,0,0,0,2.534-2.188A22.348,22.348,0,0,0,162.095,246.744Z" transform="translate(-136.328 -243.477)"/><path class="r" d="M145.4,246.554a55.555,55.555,0,0,1,23.416,0,4.385,4.385,0,0,1,.574.164.208.208,0,0,0,.269-.261v0a3.464,3.464,0,0,0-2.591-2.237,47.251,47.251,0,0,0-19.915,0,3.464,3.464,0,0,0-2.591,2.237v0a.208.208,0,0,0,.269.261A4.377,4.377,0,0,1,145.4,246.554Z" transform="translate(-143.614 -243.154)"/><path class="s" d="M141.958,382.432q.246,1.013.585,2.023a3.387,3.387,0,0,0,2.534,2.188,46.2,46.2,0,0,0,19.475,0,3.387,3.387,0,0,0,2.534-2.188q.34-1.01.585-2.023H141.958Z" transform="translate(-141.318 -366.593)"/><path class="t" d="M159.562,302.867a3.387,3.387,0,0,0,2.534-2.188,22.289,22.289,0,0,0,.834-11.423,64.29,64.29,0,0,0-26.21,0,22.29,22.29,0,0,0,.834,11.423,3.387,3.387,0,0,0,2.534,2.188A46.206,46.206,0,0,0,159.562,302.867Z" transform="translate(-136.329 -282.817)"/><path class="t" d="M159.606,338.114a3.387,3.387,0,0,0,2.534-2.188,22.837,22.837,0,0,0,1.219-6.82,64.317,64.317,0,0,0-26.981,0,22.842,22.842,0,0,0,1.22,6.82,3.387,3.387,0,0,0,2.534,2.188A46.207,46.207,0,0,0,159.606,338.114Z" transform="translate(-136.372 -318.064)"/><path class="u" d="M164.461,376.148a3.387,3.387,0,0,0,2.534-2.188q.348-1.033.6-2.069a64.274,64.274,0,0,0-25.735,0q.249,1.036.6,2.069a3.387,3.387,0,0,0,2.534,2.188A46.206,46.206,0,0,0,164.461,376.148Z" transform="translate(-141.227 -356.098)"/></g></g></g><g transform="translate(81.013 -444.523)"><g transform="translate(130 501.331)"><path class="v" d="M2384.315,1062.893a11.706,11.706,0,0,1-9.363-8.877,21.273,21.273,0,0,1-.019-8.69,12.023,12.023,0,0,1,6.224-7.924,12.226,12.226,0,0,1,6.616-1.4,12.706,12.706,0,0,1,4.074.411,11.753,11.753,0,0,1,5.57,3.2c2.485,2.486,3.532,5.364,3.532,9.737v2.243H2383.7l.112,1.009a4.137,4.137,0,0,0,3.813,3.962c1.719.224,4.093-.841,4.448-2,.112-.336.336-.355,4.5-.355h4.374l-.113.523a10.364,10.364,0,0,1-9.026,8.148A25.837,25.837,0,0,1,2384.315,1062.893Zm7.569-17.138a4.018,4.018,0,0,0-7.868.131l-.112.467h8.111Z" transform="translate(-2332.547 -1026.008)"/><path class="v" d="M130,657.007V640h11.512l1.832,4.822c4.392,11.494,5.794,14.988,5.906,14.858.056-.075.43-.953.8-1.925,2.729-7.158,6.3-16.465,6.5-17.044l.243-.71h11.7v34.014h-8.784v-9.849c0-6.074-.075-9.774-.168-9.662-.093.094-1.869,4.429-3.943,9.662l-3.756,9.475h-5.364l-3.271-8.26c-1.813-4.56-3.532-8.9-3.813-9.625a4.78,4.78,0,0,0-.654-1.364c-.093,0-.15,4.411-.15,9.812v9.812H130Z" transform="translate(-130 -637.409)"/><path class="v" d="M3950,1082.989V1070h9.718v25.978H3950Z" transform="translate(-3878.608 -1059.372)"/><path class="v" d="M3956.823,510.165a4.916,4.916,0,0,1-2.561-2.187,4.851,4.851,0,0,1,.094-4.28c2.056-3.514,7.681-3.009,8.8.8a3.738,3.738,0,0,1-.019,2.878A4.951,4.951,0,0,1,3956.823,510.165Z" transform="translate(-3882.348 -501.331)"/></g><g transform="translate(213.558 501.344)"><path class="w" d="M6390.71,1105.378l-.71-.075v-6.672l1.383-.075c1.159-.056,1.476-.131,1.869-.5l.486-.448V1070h9.738l-.057,14.727-.057,14.708-.6,1.233a8.7,8.7,0,0,1-5.887,4.373A29.781,29.781,0,0,1,6390.71,1105.378Z" transform="translate(-6356.566 -1059.385)"/><path class="w" d="M7306.737,1096.333a9.022,9.022,0,0,1-7.2-6.13c-.411-1.2-.429-1.476-.485-10.709L7299,1070h9.737v7.718c0,4.71.074,7.962.186,8.391a3.613,3.613,0,0,0,6.915-.206c.112-.392.187-3.756.187-8.279V1070h9.719v25.978h-9.532v-5.139l-.635,1.308a6.929,6.929,0,0,1-3.047,3.42A9.145,9.145,0,0,1,7306.737,1096.333Z" transform="translate(-7248.578 -1059.385)"/><path class="w" d="M8892.438,674.182a9.41,9.41,0,0,1-4.6-2.654c-1.925-2.037-2.9-4.6-3.251-8.578-.616-6.709,1.57-12.3,5.588-14.316a9.587,9.587,0,0,1,5.2-.935,5.97,5.97,0,0,1,3.177.71,7.856,7.856,0,0,1,3.515,3.4l.466.99V640h9.721v34.014h-9.721v-4.579l-.374.785a8.032,8.032,0,0,1-3.157,3.121A10.7,10.7,0,0,1,8892.438,674.182Zm7.568-7.625a4.429,4.429,0,0,0,2.075-2.205,9.955,9.955,0,0,0,.446-4.672c-.409-3.009-1.737-4.541-3.961-4.541a3.124,3.124,0,0,0-2.821,1.308c-.952,1.121-1.309,2.635-1.216,5.065.113,2.822.841,4.28,2.485,5.046A3.493,3.493,0,0,0,8900.007,666.557Z" transform="translate(-8804.432 -637.421)"/><path class="w" d="M10519.393,1063.762a9.6,9.6,0,0,1-4.244-2.261,7.345,7.345,0,0,1-.316-10.653c2.187-2.112,4.671-2.766,12.467-3.252l2.036-.131-.113-.972c-.15-1.439-.56-2.112-1.57-2.561-1.774-.785-4.222-.037-4.745,1.439l-.243.654h-8.653l.149-1.121c.5-3.588,3.309-6.317,7.737-7.494a14.932,14.932,0,0,1,4.579-.411c3.458,0,5.028.3,7.288,1.4a10.211,10.211,0,0,1,4.318,4.355l.448,1.121.055,9.868.057,9.849h-9.363v-3.607l-1.048,1.159A9.478,9.478,0,0,1,10519.393,1063.762Zm7.475-6.616a3.478,3.478,0,0,0,2.411-3.588v-.8h-.69a20.589,20.589,0,0,0-5.067.635,2.056,2.056,0,0,0,.02,3.756A5.32,5.32,0,0,0,10526.867,1057.147Z" transform="translate(-10402.213 -1027.002)"/><path class="w" d="M4601.45,672.668c.709-2.187,6.241-19.1,8.54-26.164l2.112-6.5h12.6l2.354,7.233c1.309,4,3.738,11.456,5.42,16.6s3.1,9.531,3.178,9.774l.112.411h-10.652l-.168-.6c-.093-.336-.486-1.85-.878-3.364l-.71-2.766H4613l-.5,1.925c-.28,1.047-.691,2.56-.9,3.364l-.374,1.439H4601Zm19.623-14.11c-.243-.916-.953-3.626-1.589-6.036s-1.215-4.467-1.271-4.56c-.112-.187-.131-.112-2,6.99-.692,2.616-1.31,4.878-1.346,5.009-.075.168.654.224,3.271.224h3.383Z" transform="translate(-4601 -637.421)"/><path class="w" d="M6603.7,510.934a5.726,5.726,0,0,1-2.785-2.5,5.31,5.31,0,0,1-.056-3.607,4.976,4.976,0,0,1,8.074-1.271,4.214,4.214,0,0,1,1.158,3.158,4.413,4.413,0,0,1-2.522,3.906A6.745,6.745,0,0,1,6603.7,510.934Z" transform="translate(-6563.203 -502.02)"/></g></g></g></svg>